<?xml version="1.0" encoding="utf-8"?><svg xmlns="http://www.w3.org/2000/svg" xmlns:xlink="http://www.w3.org/1999/xlink"><symbol viewBox="0 0 12 17" id="play" xmlns="http://www.w3.org/2000/svg"><path d="M11.407 9.837l-8.46 6.74c-.808.641-1.998.065-1.998-.967V2.13c0-1.031 1.19-1.608 1.998-.966l8.46 6.74c.614.492.614 1.44 0 1.933z"/></symbol><symbol viewBox="0 0 14 17" id="sound" xmlns="http://www.w3.org/2000/svg"><path d="M11.188 1.174L5.016 6.082a3.132 3.132 0 00-1.497-.372A3.158 3.158 0 00.36 8.87a3.158 3.158 0 003.16 3.161c.54 0 1.05-.139 1.497-.371l6.172 4.917c.809.642 1.999.065 1.999-.967V2.131c0-1.032-1.19-1.608-1.999-.957z"/></symbol></svg>